<svg width="104" height="32" viewBox="0 0 104 32" fill="none" xmlns="http://www.w3.org/2000/svg">
    <g clip-path="url(#clip0_1_4211)">
        <g clip-path="url(#clip1_1_4211)">
            <path d="M88.9248 9.4111H94.7238V31.9971H88.9248V9.4111ZM95.0978 2.5721C94.9198 2.1551 94.6628 1.7761 94.3408 1.4571C94.0168 1.1361 93.6348 0.879104 93.2148 0.700104C92.3348 0.327104 91.3418 0.327104 90.4618 0.700104C90.0448 0.877104 89.6658 1.1351 89.3468 1.4571C89.0258 1.7771 88.7688 2.1561 88.5898 2.5721C88.2158 3.4421 88.2158 4.4281 88.5898 5.2981C88.7698 5.7101 89.0268 6.0851 89.3468 6.4031C89.6668 6.7241 90.0448 6.9811 90.4618 7.1601C91.3418 7.5301 92.3348 7.5301 93.2148 7.1601C93.6338 6.9801 94.0158 6.7231 94.3408 6.4031C94.6608 6.0861 94.9178 5.7111 95.0978 5.2981C95.4708 4.4281 95.4708 3.4421 95.0978 2.5721ZM93.8358 4.7401C93.7268 4.9931 93.5698 5.2231 93.3738 5.4161C93.1688 5.6161 92.9288 5.7751 92.6648 5.8861C92.1358 6.1081 91.5388 6.1081 91.0098 5.8861C90.7528 5.7781 90.5198 5.6221 90.3228 5.4261C90.1268 5.2291 89.9688 4.9961 89.8588 4.7401C89.7488 4.4841 89.6938 4.2081 89.6968 3.9301C89.6948 3.6521 89.7508 3.3771 89.8608 3.1221C89.9698 2.8651 90.1268 2.6321 90.3228 2.4331C90.5198 2.2381 90.7528 2.0821 91.0098 1.9741C91.5388 1.7521 92.1358 1.7521 92.6648 1.9741C92.9288 2.0851 93.1688 2.2441 93.3738 2.4441C93.5698 2.6381 93.7258 2.8681 93.8338 3.1221C94.0498 3.6401 94.0498 4.2231 93.8338 4.7401H93.8358ZM103.751 31.9971H97.9468V0.427103H103.751V31.9971ZM55.0988 31.9971H49.3428V9.4111H50.7328L52.6308 12.0891C54.5028 10.3931 56.9388 9.4541 59.4648 9.4541H60.7868V15.1901H59.4648C58.8778 15.1861 58.2968 15.3001 57.7558 15.5261C56.7048 15.9601 55.8698 16.7961 55.4368 17.8481C55.2108 18.3881 55.0958 18.9681 55.0988 19.5541V31.9971ZM84.9028 15.3011C84.8088 15.0671 84.7008 14.8391 84.5768 14.6201C84.1488 16.5361 82.4498 17.8991 80.4858 17.9011C80.1928 17.9021 79.9008 17.8701 79.6158 17.8071C80.4678 20.0861 79.9678 22.6511 78.3208 24.4421C77.8008 24.9871 77.1788 25.4261 76.4908 25.7341C75.7948 26.0511 75.0378 26.2131 74.2728 26.2081C73.5048 26.2121 72.7448 26.0501 72.0448 25.7341C71.3598 25.4251 70.7418 24.9861 70.2248 24.4421C69.6948 23.8781 69.2768 23.2171 68.9958 22.4961C68.6968 21.7221 68.5468 20.8981 68.5548 20.0681C68.5548 19.2901 68.7048 18.5191 68.9958 17.7971C69.2798 17.0711 69.6958 16.4041 70.2248 15.8311C70.7388 15.2631 71.3558 14.7991 72.0448 14.4631C72.7378 14.1231 73.5008 13.9501 74.2728 13.9591C74.9838 13.9511 75.6878 14.0861 76.3448 14.3571C76.3118 14.1491 76.2938 13.9381 76.2918 13.7271C76.2858 11.6361 77.8188 9.8611 79.8878 9.5631C79.5238 9.3611 79.1498 9.1791 78.7678 9.0151C77.3448 8.4131 75.8128 8.1091 74.2678 8.1221C73.7278 8.1231 73.1898 8.1761 72.6608 8.2811C72.1188 8.3821 71.5868 8.5331 71.0728 8.7321C70.5658 8.9291 70.0818 9.1831 69.6318 9.4891C69.2058 9.7851 68.8268 10.1421 68.5068 10.5491V0.00610352H62.7298V20.0761C62.7128 21.7191 63.0248 23.3491 63.6458 24.8711C64.2178 26.2731 65.0568 27.5511 66.1168 28.6331C68.2798 30.7941 71.2158 32.0011 74.2728 31.9871C75.8138 31.9991 77.3408 31.7061 78.7678 31.1241C80.1378 30.5701 81.3828 29.7441 82.4268 28.6971C83.4868 27.6141 84.3258 26.3351 84.8978 24.9311C85.5148 23.3881 85.8218 21.7381 85.8008 20.0761C85.8198 18.4411 85.5138 16.8181 84.9028 15.3011Z"
                  fill="black"/>
            <path d="M83.4369 13.6429C83.4379 14.8349 82.7209 15.9089 81.6199 16.3659C80.5199 16.8219 79.2519 16.5709 78.4099 15.7279C77.5669 14.8849 77.3149 13.6179 77.7719 12.5169C78.2279 11.4169 79.3029 10.6989 80.4949 10.7009C82.1199 10.7009 83.4369 12.0179 83.4369 13.6429Z"
                  fill="url(#paint0_linear_1_4211)"/>
            <path d="M14.074 18.124L21.284 9.06396H14.574L0 27.6V31.91H5.877V28.983L14.074 18.124Z"
                  fill="url(#paint1_linear_1_4211)"/>
            <path d="M5.877 5.91699V17.409L0 24.94V13.447L5.877 5.91699Z" fill="url(#paint2_linear_1_4211)"/>
            <path d="M5.877 0V5.948L0 13.479V0H5.877Z" fill="url(#paint3_linear_1_4211)"/>
            <path d="M17.0358 24.4221L21.2838 31.8771H14.5728L13.2178 29.4471L13.2738 29.4171L17.0358 24.4221Z"
                  fill="url(#paint4_linear_1_4211)"/>
            <path d="M17.0322 24.5351L13.2692 29.5301L13.2142 29.5601L10.8262 25.2771L14.6022 20.2681L17.0322 24.5351Z"
                  fill="url(#paint5_linear_1_4211)"/>
            <path d="M46.8502 20.0461C46.8642 21.6651 46.5552 23.2711 45.9422 24.7701C45.3692 26.1791 44.5292 27.4651 43.4682 28.5551C42.4202 29.6261 41.1742 30.4831 39.7992 31.0791C36.9222 32.3071 33.6672 32.3071 30.7902 31.0791C27.9842 29.8711 25.7692 27.6041 24.6272 24.7701C24.0172 23.2701 23.7122 21.6641 23.7292 20.0461C23.7142 18.4081 24.0232 16.7831 24.6402 15.2661C25.2132 13.8551 26.0572 12.5691 27.1232 11.4811C28.1722 10.4111 29.4192 9.55708 30.7952 8.96508C32.2152 8.35608 33.7452 8.04608 35.2892 8.05608C36.8362 8.04408 38.3692 8.33508 39.8042 8.91208C41.1802 9.46408 42.4292 10.2921 43.4732 11.3441C44.5402 12.4311 45.3802 13.7171 45.9472 15.1301C46.5672 16.6931 46.8742 18.3641 46.8502 20.0461ZM34.1642 4.07908C34.1672 4.44508 34.0952 4.80908 33.9522 5.14608C33.8162 5.47008 33.6192 5.76508 33.3722 6.01508C33.1262 6.26208 32.8342 6.45908 32.5132 6.59508C32.1872 6.73708 31.8352 6.80908 31.4792 6.80708C31.1192 6.80908 30.7622 6.73608 30.4322 6.59508C30.1072 6.46008 29.8122 6.26308 29.5632 6.01508C29.3152 5.76408 29.1142 5.47008 28.9732 5.14608C28.8232 4.81108 28.7482 4.44708 28.7512 4.07908C28.7482 3.72208 28.8242 3.36908 28.9732 3.04408C29.1162 2.72508 29.3172 2.43408 29.5632 2.18608C29.8132 1.94008 30.1082 1.74308 30.4322 1.60608C30.7622 1.46408 31.1192 1.39208 31.4792 1.39408C31.8352 1.39208 32.1872 1.46408 32.5132 1.60608C33.1602 1.88208 33.6752 2.39808 33.9522 3.04408C34.0942 3.37108 34.1662 3.72308 34.1642 4.07908ZM41.0362 20.0461C41.0472 19.1831 40.8932 18.3261 40.5812 17.5221C40.2982 16.8001 39.8792 16.1391 39.3452 15.5761C38.8282 15.0391 38.2052 14.6141 37.5152 14.3301C36.0842 13.7511 34.4842 13.7511 33.0542 14.3301C32.3662 14.6121 31.7452 15.0371 31.2342 15.5761C30.7072 16.1401 30.2942 16.8011 30.0202 17.5221C29.7142 18.3281 29.5642 19.1841 29.5762 20.0461C29.5672 20.8781 29.7182 21.7031 30.0202 22.4781C30.2982 23.1981 30.7102 23.8581 31.2342 24.4241C31.7482 24.9741 32.3662 25.4161 33.0542 25.7241C33.7542 26.0431 34.5152 26.2061 35.2842 26.2011C36.0502 26.2051 36.8092 26.0541 37.5152 25.7571C38.2022 25.4681 38.8252 25.0441 39.3452 24.5101C39.8812 23.9491 40.3012 23.2881 40.5812 22.5641C40.8922 21.7611 41.0462 20.9061 41.0362 20.0461ZM41.7752 4.12208C41.7772 4.47708 41.7102 4.83008 41.5762 5.15908C41.4462 5.47508 41.2592 5.76508 41.0262 6.01508C40.7932 6.26208 40.5122 6.46008 40.2002 6.59508C39.8832 6.73708 39.5392 6.80908 39.1912 6.80708C38.8312 6.80808 38.4752 6.73608 38.1442 6.59508C37.8222 6.46208 37.5312 6.26408 37.2882 6.01508C37.0482 5.76608 36.8552 5.47608 36.7182 5.15908C36.5762 4.83208 36.5042 4.47908 36.5062 4.12208C36.5062 3.77408 36.5782 3.43108 36.7182 3.11208C37.1402 2.12208 38.1142 1.48108 39.1912 1.48508C39.5382 1.48308 39.8822 1.55408 40.2002 1.69408C40.5102 1.83008 40.7902 2.02508 41.0262 2.26708C41.5092 2.76608 41.7802 3.43208 41.7832 4.12708L41.7752 4.12208Z"
                  fill="black"/>
        </g>
    </g>
    <defs>
        <linearGradient id="paint0_linear_1_4211" x1="77.5469" y1="13.6311" x2="83.4369" y2="13.6604"
                        gradientUnits="userSpaceOnUse">
            <stop stop-color="#00AD57"/>
            <stop offset="1" stop-color="#00DB37"/>
        </linearGradient>
        <linearGradient id="paint1_linear_1_4211" x1="3.459e-10" y1="20.4301" x2="21.2841" y2="20.5288"
                        gradientUnits="userSpaceOnUse">
            <stop stop-color="#00AD57"/>
            <stop offset="1" stop-color="#00DB37"/>
        </linearGradient>
        <linearGradient id="paint2_linear_1_4211" x1="2.92373" y1="24.94" x2="3.23308" y2="5.92154"
                        gradientUnits="userSpaceOnUse">
            <stop stop-color="#00DB37"/>
            <stop offset="1" stop-color="#00AD57"/>
        </linearGradient>
        <linearGradient id="paint3_linear_1_4211" x1="2.92388" y1="3.59578e-10" x2="3.07767" y2="13.4776"
                        gradientUnits="userSpaceOnUse">
            <stop stop-color="#00AD57"/>
            <stop offset="1" stop-color="#00DB37"/>
        </linearGradient>
        <linearGradient id="paint4_linear_1_4211" x1="19.6653" y1="31.8771" x2="15.3751" y2="24.1239"
                        gradientUnits="userSpaceOnUse">
            <stop stop-color="#00DB37"/>
            <stop offset="1" stop-color="#00AD57"/>
        </linearGradient>
        <linearGradient id="paint5_linear_1_4211" x1="12.3667" y1="20.2681" x2="17.9659" y2="27.6947"
                        gradientUnits="userSpaceOnUse">
            <stop stop-color="#00AD57"/>
            <stop offset="1" stop-color="#00DB37"/>
        </linearGradient>
        <clipPath id="clip0_1_4211">
            <rect width="104" height="32" fill="white"/>
        </clipPath>
        <clipPath id="clip1_1_4211">
            <rect width="103.751" height="32" fill="white"/>
        </clipPath>
    </defs>
</svg>
